<?xml version="1.0" encoding="UTF-8" standalone="no"?>
<!-- Created with Inkscape (http://www.inkscape.org/) -->

<svg
   xmlns:dc="http://purl.org/dc/elements/1.1/"
   xmlns:cc="http://creativecommons.org/ns#"
   xmlns:rdf="http://www.w3.org/1999/02/22-rdf-syntax-ns#"
   xmlns:svg="http://www.w3.org/2000/svg"
   xmlns="http://www.w3.org/2000/svg"
   xmlns:sodipodi="http://sodipodi.sourceforge.net/DTD/sodipodi-0.dtd"
   xmlns:inkscape="http://www.inkscape.org/namespaces/inkscape"
   width="150"
   height="30"
   viewBox="0 0 39.687499 7.9375005"
   version="1.1"
   id="svg1009"
   inkscape:version="0.92.4 (5da689c313, 2019-01-14)"
   sodipodi:docname="logo_white_letter.svg">
  <defs
     id="defs1003" />
  <sodipodi:namedview
     id="base"
     pagecolor="#ffffff"
     bordercolor="#666666"
     borderopacity="1.0"
     inkscape:pageopacity="0.0"
     inkscape:pageshadow="2"
     inkscape:zoom="2.8"
     inkscape:cx="79.356138"
     inkscape:cy="11.14278"
     inkscape:document-units="mm"
     inkscape:current-layer="layer1"
     showgrid="false"
     units="px"
     inkscape:window-width="1920"
     inkscape:window-height="1137"
     inkscape:window-x="-8"
     inkscape:window-y="-8"
     inkscape:window-maximized="1" />
  <metadata
     id="metadata1006">
    <rdf:RDF>
      <cc:Work
         rdf:about="">
        <dc:format>image/svg+xml</dc:format>
        <dc:type
           rdf:resource="http://purl.org/dc/dcmitype/StillImage" />
        <dc:title></dc:title>
      </cc:Work>
    </rdf:RDF>
  </metadata>
  <g
     inkscape:label="Layer 1"
     inkscape:groupmode="layer"
     id="layer1"
     transform="translate(0,-289.06248)">
    <g
       transform="matrix(0.20628069,0,0,0.20628069,-2.371796,260.22857)"
       id="g987">
      <path
         style="fill:#ffffff;stroke-width:0.05319694"
         d="m 120.16132,161.60053 c -0.11703,-0.0256 -0.35363,-0.0717 -0.52577,-0.10258 -0.17213,-0.0309 -0.38041,-0.0909 -0.46283,-0.13355 -0.0824,-0.0426 -0.1903,-0.0775 -0.23976,-0.0775 -0.0851,0 -0.271,-0.0763 -0.81972,-0.33651 -0.76439,-0.36249 -1.54159,-0.9901 -2.12096,-1.71274 -0.35226,-0.43934 -0.40094,-0.5125 -0.53515,-0.80423 -0.0557,-0.12112 -0.12724,-0.23625 -0.15892,-0.25582 -0.0317,-0.0196 -0.0577,-0.088 -0.0578,-0.15215 0,-0.0641 -0.048,-0.19494 -0.10639,-0.29073 -0.0584,-0.0958 -0.1062,-0.21773 -0.1062,-0.27096 0,-0.0532 -0.05,-0.23817 -0.11109,-0.41099 -0.10935,-0.30928 -0.11101,-0.38219 -0.10597,-4.64976 0.004,-3.55868 0.0179,-4.34509 0.0764,-4.38875 0.0469,-0.035 1.55593,-0.0441 4.40162,-0.0266 l 4.3303,0.0266 0.0136,3.71877 c 0.01,2.63946 0.0309,3.73953 0.073,3.79029 0.0492,0.0593 1.5068,0.0715 8.5612,0.0715 5.64921,0 8.51297,0.018 8.53497,0.0536 0.0468,0.0757 0.052,5.87317 0.006,5.9487 -0.0466,0.0754 -20.30132,0.0788 -20.64597,0.003 z m 32.76727,-0.008 c -0.0139,-0.0366 -0.0191,-3.10671 -0.0117,-6.82251 l 0.0137,-6.75601 4.40001,-0.0136 c 4.22824,-0.0131 4.40207,-0.01 4.45248,0.0844 0.0764,0.14271 0.0723,13.41304 -0.004,13.50516 -0.0827,0.0997 -8.81248,0.10216 -8.8504,0.003 z m 25.90895,-0.0134 c -0.14628,-0.04 -0.39764,-0.0893 -0.55856,-0.10958 -0.16092,-0.0203 -0.35243,-0.0663 -0.42558,-0.10228 -0.0731,-0.036 -0.2162,-0.0813 -0.31789,-0.10069 -0.10171,-0.0194 -0.28723,-0.0827 -0.41228,-0.14059 -0.12506,-0.0579 -0.34108,-0.15687 -0.48005,-0.21987 -0.13898,-0.063 -0.48491,-0.2787 -0.76872,-0.47931 -0.39304,-0.2778 -0.61061,-0.48233 -0.91288,-0.85814 -0.41764,-0.51925 -0.8839,-1.34869 -0.88695,-1.5778 -0.002,-0.0745 -0.0481,-0.23117 -0.10461,-0.3482 -0.0565,-0.11703 -0.10359,-0.29074 -0.10459,-0.38603 -0.002,-0.0953 -0.0342,-0.40648 -0.0738,-0.69156 -0.0569,-0.40977 -0.0704,-1.5934 -0.0645,-5.65182 0.008,-5.39604 0.0244,-5.81701 0.24791,-6.31857 0.0558,-0.12512 0.10137,-0.27416 0.10137,-0.33119 0,-0.057 0.0478,-0.18206 0.1062,-0.27786 0.0584,-0.0958 0.10628,-0.2012 0.1064,-0.23423 0,-0.078 0.28977,-0.55768 0.55286,-0.91606 0.29792,-0.40583 1.34512,-1.34256 1.7607,-1.57497 0.6126,-0.34259 1.08371,-0.56094 1.21025,-0.56094 0.0671,0 0.21127,-0.0479 0.32046,-0.10639 0.10917,-0.0585 0.26074,-0.1064 0.3368,-0.1064 0.0761,0 0.27364,-0.0419 0.43907,-0.0931 0.28183,-0.0872 0.91565,-0.0931 10.06241,-0.0931 8.9391,0 9.78853,0.007 10.08082,0.0885 0.17555,0.0487 0.43887,0.1116 0.58517,0.13986 0.51839,0.10015 1.47075,0.51175 2.03799,0.88082 0.5818,0.37853 1.51881,1.33721 1.8067,1.84846 0.25176,0.44708 0.59726,1.24592 0.59726,1.38091 0,0.0477 0.0535,0.22816 0.11891,0.40098 l 0.11889,0.31421 0.0155,5.37289 c 0.0129,4.50152 0.003,5.45917 -0.0625,5.90487 -0.10625,0.72499 -0.18321,1.06916 -0.30925,1.38312 -0.16672,0.4153 -0.59177,1.25013 -0.6365,1.25013 -0.0222,0 -0.0756,0.0658 -0.11866,0.14629 -0.1025,0.19137 -0.6741,0.75914 -1.02989,1.02297 -0.3545,0.26289 -1.35851,0.74965 -1.84692,0.89542 -0.20479,0.0611 -0.62967,0.1602 -0.94415,0.22016 -0.56394,0.10753 -0.70639,0.10897 -10.42659,0.10543 -8.1608,-0.003 -9.90055,-0.0161 -10.12083,-0.0763 z m 16.55786,-10.58027 c 0.01,-3.33161 -0.003,-4.58871 -0.0464,-4.64143 -0.05,-0.0602 -1.10483,-0.0723 -6.29589,-0.0723 -5.87143,0 -6.2408,0.006 -6.32,0.0931 -0.0753,0.0834 -0.0837,0.5624 -0.0799,4.60345 0.004,4.07152 0.0125,4.51521 0.0892,4.56014 0.0517,0.0304 2.53746,0.0452 6.36219,0.038 l 6.27724,-0.0118 z m -80.56683,-4.67467 c -0.0796,-0.10182 0.009,-1.50968 0.11266,-1.78796 0.0476,-0.12802 0.0866,-0.301 0.0866,-0.38439 0,-0.0834 0.0478,-0.22999 0.1062,-0.32579 0.0584,-0.0958 0.10628,-0.2386 0.10639,-0.31733 0,-0.0787 0.0243,-0.15806 0.0538,-0.17627 0.0295,-0.0182 0.0968,-0.12137 0.14951,-0.22923 0.49226,-1.00639 1.21858,-1.70013 2.35035,-2.24491 0.37205,-0.17908 1.29155,-0.43233 1.94169,-0.53477 0.36253,-0.0571 20.94128,-0.0597 21.03133,-0.003 0.0587,0.0372 0.0722,0.58375 0.0743,3.01467 0.003,2.86749 -0.001,2.97057 -0.0983,3.00885 -0.0555,0.0218 -5.89744,0.041 -12.98206,0.0425 -10.15818,0.002 -12.89198,-0.011 -12.93245,-0.0628 z m 29.30496,-1.6e-4 c -0.0888,-0.0888 -0.0852,-5.89742 0.004,-5.98632 0.0493,-0.0493 3.01564,-0.063 13.04655,-0.0601 7.1405,0.002 13.02541,0.0206 13.07759,0.0412 0.0894,0.0353 0.0949,0.20781 0.0958,3.00803 0,1.6338 -0.0143,2.98574 -0.0328,3.00431 -0.0186,0.0186 -5.90554,0.0381 -13.08217,0.0434 -9.64902,0.007 -13.06411,-0.006 -13.10862,-0.0505 z"
         id="path944"
         inkscape:connector-curvature="0"
         sodipodi:nodetypes="ccsccccccscccscccscccccccsccccccccscccccccccsccccscscscsccsccsccsccsccccccccccccccscsccccccsccccscccsccscc" />
      <rect
         transform="scale(1,-1)"
         y="-167.66319"
         x="12.408391"
         height="1.1867567"
         width="188.99086"
         id="rect952"
         style="fill:#ffffff;fill-opacity:1;stroke:none;stroke-width:0.51117069;stroke-miterlimit:4;stroke-dasharray:none;stroke-opacity:1" />
      <path
         style="fill:#de0b1c;fill-opacity:1;stroke-width:0.05319694"
         d="m 119.32347,178.46249 c -0.0841,-0.0489 -0.0931,-0.16459 -0.0931,-1.19344 0,-1.07187 0.006,-1.14247 0.1029,-1.19429 0.0684,-0.0366 1.51842,-0.0551 4.33174,-0.0551 3.77349,0 4.23786,-0.009 4.31246,-0.0836 0.1041,-0.10412 0.10853,-0.39394 0.008,-0.53131 -0.0731,-0.1 -0.17613,-0.10363 -3.25831,-0.11485 -3.55733,-0.0129 -3.34159,0.008 -4.24947,-0.41296 -0.36815,-0.1707 -0.52631,-0.27848 -0.67198,-0.45792 -0.30093,-0.3707 -0.4501,-0.72181 -0.51576,-1.21397 -0.1552,-1.16326 0.0135,-1.82132 0.61628,-2.40406 0.55979,-0.54117 0.69098,-0.60916 1.77578,-0.92016 0.26201,-0.0751 0.82487,-0.0852 4.74659,-0.0852 h 4.44935 l 0.0943,0.14402 c 0.0818,0.12494 0.0943,0.2762 0.0943,1.14184 0,0.853 -0.0126,1.01047 -0.0871,1.08489 -0.0791,0.0791 -0.44065,0.0867 -3.95109,0.0829 -3.70757,-0.004 -3.86806,-1.1e-4 -3.96357,0.0954 -0.12508,0.12507 -0.19937,0.52226 -0.11374,0.60798 0.0443,0.0444 0.92157,0.0691 3.15747,0.0891 3.02101,0.027 3.10627,0.0306 3.51503,0.14877 0.23041,0.0666 0.53467,0.17975 0.67611,0.25142 0.37716,0.19113 0.92531,0.73034 1.18194,1.16268 l 0.22329,0.37614 -0.005,0.86247 -0.005,0.86246 -0.18119,0.35525 c -0.27666,0.54242 -0.52378,0.79075 -1.02454,1.02958 -0.98393,0.46924 -0.42239,0.42966 -6.07041,0.42784 -3.29871,-0.001 -5.03406,-0.0201 -5.09545,-0.0558 z m 15.5734,-0.0692 c -0.87645,-0.37822 -1.14175,-0.63179 -1.4677,-1.4028 -0.1428,-0.33779 -0.17274,-0.47467 -0.1658,-0.75801 0.004,-0.19018 0.027,-1.37514 0.0496,-2.63325 l 0.0412,-2.28746 0.16985,-0.29259 c 0.20879,-0.35967 0.60054,-0.75026 0.92489,-0.92217 0.55862,-0.29606 0.64727,-0.30135 5.04559,-0.30135 h 4.04464 l 0.4134,0.13798 c 0.58157,0.19413 0.77359,0.31472 1.08221,0.67966 0.52539,0.62128 0.49917,0.48672 0.51847,2.66045 0.0106,1.19021 -0.003,1.92827 -0.0348,1.96055 -0.0803,0.0803 -7.49731,0.0638 -7.59449,-0.0169 -0.0624,-0.0518 -0.0705,-0.23527 -0.0463,-1.05051 0.0169,-0.56777 0.0532,-1.01641 0.0854,-1.05519 0.043,-0.0518 0.5296,-0.071 2.10338,-0.0826 1.97633,-0.0146 2.05013,-0.0188 2.12664,-0.1215 0.0935,-0.12545 0.0621,-0.43131 -0.0563,-0.54976 -0.0663,-0.0663 -0.44862,-0.0806 -2.47428,-0.093 -2.25937,-0.0138 -2.4028,-0.009 -2.51677,0.0833 l -0.12085,0.0979 -0.006,1.71108 c -0.004,1.41432 0.008,1.72421 0.0703,1.7868 0.0642,0.0642 0.70571,0.0757 4.21476,0.0757 3.3193,0 4.15035,0.0136 4.19612,0.0688 0.0632,0.0761 0.0987,2.27645 0.0384,2.37409 -0.025,0.0405 -1.55805,0.0556 -5.20574,0.0515 l -5.17026,-0.006 z m 11.97405,0.0811 c -0.0159,-0.0258 -0.0307,-1.95522 -0.0329,-4.28757 -0.003,-3.17359 0.0118,-4.25958 0.0585,-4.31591 0.0527,-0.0635 0.60455,-0.0752 3.52705,-0.075 2.0035,1.5e-4 3.59855,0.0223 3.78223,0.0523 0.41994,0.0688 1.05521,0.39679 1.28889,0.66552 0.41586,0.47827 0.59326,1.04962 0.55849,1.79885 -0.0204,0.44002 -0.0298,0.47198 -0.1526,0.51867 -0.20881,0.0794 -3.3304,0.0642 -3.4326,-0.0168 -0.0472,-0.0374 -0.0959,-0.18144 -0.11116,-0.32925 -0.0173,-0.16728 -0.0618,-0.28809 -0.12253,-0.33248 -0.13695,-0.10014 -1.5275,-0.0987 -1.6108,0.002 -0.0417,0.0503 -0.0633,0.99837 -0.073,3.20511 l -0.0137,3.13369 -1.81843,0.014 c -1.01041,0.008 -1.83131,-0.007 -1.84743,-0.0329 z m 14.77417,0.004 c -0.0347,-0.022 -0.18677,-0.27902 -0.33797,-0.57106 -0.1512,-0.29202 -0.30553,-0.56686 -0.34293,-0.61075 -0.0374,-0.0439 -0.0858,-0.13964 -0.10743,-0.21279 -0.0216,-0.0731 -0.0624,-0.16181 -0.0906,-0.19704 -0.0281,-0.0352 -0.13402,-0.22673 -0.23528,-0.42557 -0.42656,-0.83766 -0.63505,-1.22919 -0.69147,-1.29854 -0.033,-0.0406 -0.0779,-0.13192 -0.0997,-0.20303 -0.0219,-0.0711 -0.16464,-0.34641 -0.31727,-0.61177 -0.33432,-0.58117 -0.63053,-1.12797 -1.05388,-1.94538 -0.17426,-0.33647 -0.39184,-0.74354 -0.48352,-0.9046 -0.0917,-0.16106 -0.25047,-0.45376 -0.35287,-0.65042 -0.10241,-0.19667 -0.22805,-0.43594 -0.2792,-0.53172 -0.11616,-0.21747 -0.12037,-0.44489 -0.009,-0.48762 0.0463,-0.0178 0.82057,-0.0323 1.72066,-0.0323 1.86549,0 1.67276,-0.0517 1.98453,0.53197 0.40007,0.74895 1.24152,2.35737 1.82283,3.4844 0.59682,1.15705 0.65709,1.27597 0.68753,1.35652 0.0166,0.0439 0.0967,0.19949 0.17801,0.34578 0.24412,0.43922 0.36837,0.35118 0.78824,-0.55857 0.0743,-0.16092 0.16901,-0.35243 0.21053,-0.42557 0.0415,-0.0731 0.20162,-0.37809 0.35577,-0.67765 0.15415,-0.29956 0.38044,-0.73046 0.50284,-0.95755 0.1224,-0.22709 0.30018,-0.57678 0.39508,-0.77708 0.0949,-0.20032 0.22837,-0.46364 0.29661,-0.58517 0.0683,-0.12153 0.25808,-0.4843 0.42184,-0.80613 0.16376,-0.32185 0.35652,-0.6633 0.42835,-0.75879 l 0.13059,-0.17362 1.70656,0.014 c 1.50084,0.0123 1.71306,0.0244 1.76054,0.0996 0.0409,0.0648 0.003,0.18788 -0.15667,0.50538 -0.27685,0.55165 -1.30691,2.46053 -1.68702,3.12631 -0.165,0.28902 -0.30002,0.53894 -0.30002,0.55538 0,0.0164 -0.0934,0.18691 -0.20761,0.37885 -0.11418,0.19194 -0.22473,0.40883 -0.24567,0.48197 -0.0209,0.0731 -0.0751,0.17509 -0.12022,0.22653 -0.0452,0.0515 -0.16988,0.26688 -0.27709,0.47877 -0.10725,0.21188 -0.27458,0.52887 -0.37187,0.70443 -0.0973,0.17554 -0.29266,0.54253 -0.43417,0.81552 -0.14152,0.27298 -0.3023,0.56025 -0.35732,0.63836 -0.055,0.0781 -0.15424,0.24975 -0.22052,0.38141 -0.0663,0.13166 -0.14719,0.25697 -0.17983,0.27847 -0.0785,0.0517 -4.35,0.0507 -4.43137,-0.001 z m 10.1293,-0.0247 c -0.0806,-0.0608 -0.0888,-0.42668 -0.096,-4.29195 -0.008,-4.01663 -0.003,-4.22893 0.0881,-4.29566 0.12173,-0.089 3.31979,-0.10288 3.48376,-0.0152 0.10043,0.0537 0.10291,0.15769 0.10291,4.30708 0,4.1494 -0.002,4.25334 -0.10291,4.30708 -0.1583,0.0847 -3.36241,0.0742 -3.47585,-0.0114 z m 6.82378,-0.0258 c -0.99142,-0.45489 -1.04063,-0.49268 -1.37377,-1.05504 -0.30371,-0.51271 -0.32183,-0.72334 -0.31095,-3.61385 l 0.009,-2.39386 0.15783,-0.31152 c 0.0868,-0.17132 0.25144,-0.41783 0.36582,-0.54778 0.20824,-0.23657 0.63791,-0.49723 0.81965,-0.49723 0.0532,0 0.23292,-0.0479 0.39941,-0.10639 0.293,-0.10299 0.43908,-0.1064 4.55328,-0.1064 3.33565,0 4.26241,0.0143 4.30558,0.0665 0.0883,0.10673 0.10199,2.0318 0.0152,2.13639 -0.0628,0.0757 -0.42397,0.0846 -3.43104,0.0846 -2.54308,0 -3.37638,0.0155 -3.4247,0.0638 -0.0472,0.0472 -0.0638,0.5394 -0.0638,1.88469 0,1.58441 0.0109,1.83172 0.0836,1.90446 0.0742,0.0742 0.45433,0.0836 3.3815,0.0836 2.17161,0 3.33306,0.0188 3.4008,0.0551 0.0968,0.0518 0.1029,0.12232 0.1029,1.18629 0,0.80891 -0.0182,1.14941 -0.0638,1.19505 -0.0487,0.0487 -1.09497,0.063 -4.40205,0.0604 -3.86588,-0.003 -4.35849,-0.0127 -4.5244,-0.0888 z m 12.26189,0.0119 c -0.0878,-0.0405 -0.30754,-0.13718 -0.48837,-0.21498 -0.26743,-0.11507 -0.39148,-0.21489 -0.66495,-0.53509 -0.55211,-0.64644 -0.54493,-0.60056 -0.54412,-3.47854 0,-2.67703 0.01,-2.76697 0.33129,-3.32481 0.26461,-0.45908 0.35384,-0.5412 0.88737,-0.81671 l 0.47878,-0.24723 4.22916,-0.0155 c 3.78561,-0.0139 4.27092,-0.006 4.62744,0.0729 0.82678,0.18368 1.5199,0.86797 1.66613,1.64492 0.0275,0.14629 0.0603,1.0231 0.0728,1.94846 0.0204,1.50786 0.0137,1.69153 -0.0645,1.76975 -0.0793,0.0793 -0.42348,0.087 -3.7541,0.0843 -2.01675,-0.002 -3.70318,-0.0169 -3.7476,-0.034 -0.0444,-0.017 -0.11701,-0.10107 -0.16131,-0.18672 -0.0701,-0.13554 -0.0724,-0.27081 -0.0175,-1.04419 0.0346,-0.48866 0.0866,-0.91841 0.1156,-0.95498 0.0405,-0.0511 0.5237,-0.0665 2.0904,-0.0665 1.78158,0 2.04827,-0.0105 2.12136,-0.0836 0.1116,-0.1116 0.11145,-0.5186 0,-0.61129 -0.12761,-0.10589 -4.84043,-0.1225 -5.00756,-0.0177 -0.11606,0.0728 -0.11774,0.0929 -0.14059,1.68313 -0.0126,0.88521 -0.0256,1.6693 -0.0287,1.74245 -0.003,0.0731 0.0348,0.16291 0.0842,0.19948 0.0701,0.0518 0.99941,0.0665 4.22079,0.0665 3.86758,0 4.13618,0.006 4.21284,0.0931 0.0677,0.0769 0.0828,0.2822 0.0869,1.17961 0.003,0.71916 -0.0148,1.11035 -0.0536,1.15703 -0.0887,0.10683 -10.31941,0.0973 -10.5519,-0.01 z m -19.00075,-9.53218 c -0.0225,-1.35885 -0.0468,-2.37255 -0.0468,-2.37255 2.44123,0.007 3.45338,0.004 3.45338,0.004 0.0254,1.24298 0.0219,1.25375 0.007,2.33243 -1.2077,0.0324 -1.9243,0.0564 -3.41396,0.0361 z"
         id="path946"
         inkscape:connector-curvature="0"
         sodipodi:nodetypes="cscsccccccccsccscccccccscccccccccccccccsccccccccccscccccsccccccccccccccccccccccccccccccccssccscscccscccccccccccsccccccccccccsccscccccccccscsccscscscsccccccccccccccsscccccsccccccsccccccccccc" />
      <path
         style="fill:#de0b1c;fill-opacity:1;stroke-width:0.05319694"
         d="m 12.015339,161.57502 c -0.06167,-0.0743 -0.07326,-1.74976 -0.07326,-10.5912 v -10.50295 l 0.125583,-0.10168 c 0.122824,-0.0994 0.390635,-0.10169 12.163274,-0.10169 11.957495,0 12.041528,5.5e-4 12.615081,0.11027 0.77835,0.14864 1.761715,0.49289 2.279697,0.79805 1.229541,0.72435 1.898044,1.41598 2.464204,2.54948 0.09499,0.19018 0.194007,0.38169 0.220039,0.42558 0.133036,0.22427 0.403933,1.72698 0.350788,1.94587 -0.01476,0.0608 -0.08839,0.13861 -0.163619,0.17288 -0.103009,0.047 -2.693556,0.0625 -10.494373,0.0631 -6.43405,5.4e-4 -10.387828,0.0199 -10.437393,0.0512 -0.07012,0.0444 -0.08302,0.97177 -0.106395,7.64625 l -0.02659,7.59581 -4.421885,0.0136 c -4.065207,0.0125 -4.427791,0.006 -4.495144,-0.0747 z m 34.082851,0.004 c -0.0757,-0.0757 -0.08244,-1.09443 -0.0703,-10.62452 l 0.01343,-10.54079 0.132992,-0.0673 c 0.106079,-0.0537 2.555363,-0.067 12.102304,-0.0657 6.746941,0.001 12.131794,0.0224 12.341697,0.0493 0.659679,0.0846 1.114493,0.16442 1.22353,0.21476 0.05851,0.027 0.20215,0.0832 0.319185,0.12478 0.788591,0.2804 1.416931,0.60171 1.892853,0.96792 0.517117,0.39791 1.183833,1.08508 1.382786,1.42519 0.10019,0.17127 0.247852,0.42262 0.328155,0.55856 0.08029,0.13594 0.173049,0.34292 0.206113,0.45995 0.03308,0.11704 0.103053,0.33248 0.155516,0.47878 0.206612,0.57618 0.270619,0.90481 0.25389,1.30332 l -0.01676,0.39897 -10.591366,0.0134 -10.59136,0.0134 -0.101227,0.11185 c -0.09835,0.10867 -0.101617,0.3247 -0.115071,7.61553 -0.01,5.4103 -0.03036,7.52359 -0.07301,7.57499 -0.04857,0.0585 -0.834038,0.0713 -4.384398,0.0713 -3.86399,0 -4.334168,-0.009 -4.408965,-0.0837 z m 17.630706,-0.0889 c -0.05807,-0.0952 -0.105674,-0.20016 -0.105785,-0.23315 0,-0.033 -0.03602,-0.0897 -0.07978,-0.12603 -0.04379,-0.0363 -0.156309,-0.22478 -0.250088,-0.41879 -0.09379,-0.19401 -0.213568,-0.40983 -0.266196,-0.47961 -0.05262,-0.0698 -0.09569,-0.16683 -0.09569,-0.21567 0,-0.0488 -0.07577,-0.20721 -0.168382,-0.35191 -0.09261,-0.1447 -0.375654,-0.67006 -0.628979,-1.16745 -0.253335,-0.49739 -0.659989,-1.28736 -0.903678,-1.7555 -0.243689,-0.46813 -0.54877,-1.05463 -0.677955,-1.30332 -0.129191,-0.2487 -0.291966,-0.54793 -0.361729,-0.66496 -0.06976,-0.11703 -0.141262,-0.2487 -0.15889,-0.29259 -0.01765,-0.0439 -0.06373,-0.13964 -0.102438,-0.21278 -0.03869,-0.0731 -0.250127,-0.48011 -0.469817,-0.90435 -0.219689,-0.42425 -0.595554,-1.14241 -0.835258,-1.59591 -0.239704,-0.4535 -0.469356,-0.89637 -0.51034,-0.98414 -0.04096,-0.0878 -0.09895,-0.1955 -0.128813,-0.23939 -0.02986,-0.0439 -0.07879,-0.13964 -0.108726,-0.21279 -0.02992,-0.0731 -0.110913,-0.22875 -0.179949,-0.34578 -0.185338,-0.3142 -0.403878,-0.74844 -0.404244,-0.80326 -1.5e-4,-0.0264 -0.107761,-0.20349 -0.239071,-0.39367 -0.190428,-0.27582 -0.238799,-0.39132 -0.23906,-0.57085 -2.89e-4,-0.18953 0.01859,-0.22963 0.119372,-0.25394 0.06583,-0.0159 4.464556,-0.0223 9.774939,-0.0143 l 9.655246,0.0145 -0.0039,0.47877 c -0.0044,0.53518 -0.0615,0.73441 -0.430076,1.50428 -0.268455,0.56076 -0.814706,1.31544 -1.180569,1.63106 -0.135951,0.11728 -0.410078,0.36199 -0.609159,0.54382 -0.199086,0.18182 -0.474379,0.38718 -0.611767,0.45636 -0.137383,0.0692 -0.345544,0.18634 -0.462579,0.26036 -0.324042,0.20495 -1.094056,0.56288 -1.303322,0.60583 -0.102404,0.021 -0.246036,0.0685 -0.319185,0.10556 -0.344772,0.17461 -0.84496,0.26268 -1.649103,0.2904 -0.792077,0.0273 -0.825191,0.0329 -0.840809,0.14244 -0.0094,0.0664 0.101738,0.30653 0.265985,0.57448 0.155232,0.25324 0.315261,0.5251 0.355617,0.60413 0.04035,0.079 0.114482,0.19156 0.164719,0.25008 0.05023,0.0585 0.23266,0.34129 0.405388,0.62838 0.172738,0.28708 0.373906,0.61474 0.447054,0.72811 0.443946,0.68812 0.797921,1.28252 0.892255,1.4983 0.05966,0.13647 0.156987,0.27409 0.216271,0.30582 0.05929,0.0318 0.124295,0.10968 0.144465,0.17322 0.03069,0.0967 0.136594,0.26989 0.462462,0.75621 0.109004,0.16268 0.492762,0.80373 0.736123,1.22966 0.150454,0.26332 0.323892,0.5337 0.385424,0.60085 0.08722,0.0952 0.09926,0.14207 0.05467,0.21279 -0.05312,0.0842 -0.40036,0.0917 -4.853055,0.10429 l -4.795836,0.0136 -0.105585,-0.17318 z m 22.176514,0.14785 c -0.0136,-0.0136 -0.251005,-0.0627 -0.527541,-0.10912 -0.497341,-0.0835 -0.884851,-0.18712 -1.19434,-0.31952 -0.700284,-0.29957 -0.846187,-0.37719 -1.697724,-0.90312 -0.218191,-0.13476 -0.782264,-0.77887 -1.098713,-1.25461 -0.442103,-0.66465 -0.561331,-1.03598 -0.794785,-2.47531 -0.0323,-0.19916 -0.05278,-2.33612 -0.05278,-5.51052 0,-5.60296 0.0055,-5.72685 0.286982,-6.58566 0.176124,-0.53715 0.253002,-0.71083 0.494521,-1.11713 0.338267,-0.56906 0.557196,-0.84381 0.716725,-0.89941 0.08298,-0.0289 0.150876,-0.0863 0.150876,-0.12745 0,-0.0412 0.129617,-0.19202 0.288031,-0.33524 0.894869,-0.80904 1.862038,-1.28529 3.249569,-1.60015 0.40269,-0.0914 0.944612,-0.0966 10.080821,-0.0966 9.053948,0 9.683388,0.006 10.107408,0.0947 0.54168,0.11347 1.6227,0.45042 1.8087,0.56376 0.0731,0.0446 0.29295,0.16927 0.48846,0.27711 0.43025,0.23732 0.67812,0.43003 1.2257,0.9529 0.37637,0.35939 0.92722,1.0889 1.08457,1.43631 0.0331,0.0731 0.13247,0.2894 0.22077,0.48057 0.0883,0.19116 0.18778,0.5231 0.22107,0.73765 0.0333,0.21454 0.0898,0.44116 0.12558,0.50358 0.0501,0.0875 0.065,1.39408 0.065,5.69918 v 5.58568 l -0.11969,0.45944 c -0.0658,0.2527 -0.1197,0.50359 -0.1197,0.55754 0,0.1069 -0.15406,0.5315 -0.34518,0.95131 -0.24496,0.53806 -1.00494,1.42289 -1.60449,1.86807 -0.0834,0.0619 -0.43268,0.26142 -0.77622,0.44335 -0.62017,0.32842 -1.42645,0.58781 -1.82716,0.58781 -0.0905,0 -0.28208,0.0356 -0.4257,0.0792 -0.22723,0.0689 -1.54348,0.0793 -10.133603,0.0798 -5.429861,3e-4 -9.883611,-0.0105 -9.89722,-0.0242 z m 16.27464,-6.10354 c 0.0487,-0.0487 0.0638,-1.1423 0.0638,-4.59774 0,-3.95495 -0.0102,-4.54406 -0.0796,-4.61352 -0.0699,-0.0699 -0.838,-0.0785 -6.289808,-0.0703 l -6.210176,0.009 -0.07954,0.15959 c -0.06805,0.13653 -0.08238,0.76561 -0.09915,4.35367 -0.01077,2.30675 -0.0039,4.29935 0.01548,4.42801 0.06473,0.43169 -0.533912,0.39479 6.405544,0.39479 4.75877,0 6.22452,-0.0149 6.27344,-0.0638 z m -79.294156,-1.77448 -0.118234,-0.0828 v -2.80578 c 0,-2.11135 0.01582,-2.82158 0.06384,-2.86962 0.100034,-0.10003 19.081405,-0.092 19.218344,0.008 0.0872,0.0638 0.09477,0.12362 0.06645,0.52497 -0.0429,0.60829 -0.309949,1.64035 -0.519959,2.00972 -0.267167,0.46991 -0.402873,0.66954 -0.66938,0.98475 -0.42785,0.50603 -0.581246,0.65239 -0.979074,0.93417 -0.432596,0.30641 -1.263858,0.7465 -1.646706,0.87181 -0.160927,0.0527 -0.424253,0.13909 -0.585175,0.19203 -0.160917,0.053 -0.510984,0.14559 -0.777935,0.20586 -0.476177,0.10752 -0.612527,0.10959 -7.209653,0.10959 -5.999905,0 -6.737022,-0.009 -6.842512,-0.0828 z"
         id="path948"
         inkscape:connector-curvature="0"
         sodipodi:nodetypes="csccsccccccccccccccsccccccccccccccccccscccccccsccscccccsccccccccscccscccccccccccccccccccccccccccccscccsccsccccccccsccscccscscccsssccccsccscccccccccscccs" />
      <rect
         style="fill:#ffffff;fill-opacity:1;stroke:none;stroke-width:0.51117069;stroke-miterlimit:4;stroke-dasharray:none;stroke-opacity:1"
         id="rect950"
         width="188.99086"
         height="1.1867567"
         x="12.408391"
         y="-165.66551"
         transform="scale(1,-1)" />
    </g>
  </g>
</svg>
